<!-- https://www.svgrepo.com/svg/374159/vba -->
<!-- https://www.svgviewer.dev/ -->

<svg width="128" height="128" viewBox="0 0 128 128" xmlns="http://www.w3.org/2000/svg">
    <title>vba</title>
    <path d="M102.656 97.074 75.6 82.47V61.424l27.06 12.886z"/>
    <path d="M101.8 93.64 77.748 80.756V64L101.8 75.6z" fill="#952781"/>
    <path d="M103.944 75.168 75.6 61.424l25.77-11.168 26.2 12.456z"/>
    <path d="M103.086 73.45 79.892 61.854l21.048-9.02 22.334 10.31z" fill="#952781"/>
    <path d="M127.57 62.712 102.23 74.74l.428 22.336L128 84.62z"/>
    <path d="M125.42 64.86 104.8 75.6v18.04l20.62-10.308z" fill="#952781"/>
    <path d="M64 75.168 36.94 60.564V39.52L64 52.404z"/>
    <path d="M63.14 72.16 39.088 58.844V42.092l24.052 11.6z" fill="#6483c0"/>
    <path d="M65.288 53.26 36.94 39.52l25.768-10.74 26.2 12.028z"/>
    <path d="m64.43 51.544-23.196-11.6 21.048-9 22.336 10.308z" fill="#6483c0"/>
    <path d="m88.912 40.808-25.34 12.026L64 75.168l25.344-12.456z"/>
    <path d="m86.764 43.384-20.62 10.31v18.04l20.62-10.308z" fill="#6483c0"/>
    <path d="M27.06 95.788 0 81.18V60.136L26.63 73z"/>
    <path d="M26.2 92.352 2.148 79.464V62.712l24.054 11.6z" fill="#d87b30"/>
    <path d="M27.92 73.88 0 60.136l25.77-11.168 26.2 12.456z"/>
    <path d="M27.488 72.16 3.864 60.56l21.476-9.02 22.336 10.308z" fill="#d87b30"/>
    <path d="M51.972 61.424 26.632 73.45l.43 22.34 25.344-12.46z"/>
    <path d="m49.396 63.57-20.62 10.74.43 18.04 20.62-10.31z" fill="#d87b30"/>
    <path d="m66.148 99.2-27.06-15.032V63.14l26.628 12.886z"/>
    <path d="M65.288 95.788 41.234 82.9V65.72l24.056 11.6z" fill="#e0d400"/>
    <path d="m67.006 76.886-27.92-13.744 25.77-10.74 26.2 12.026z"/>
    <path d="M66.148 75.168 42.952 64l21.476-9 22.336 10.308z" fill="#e0d400"/>
    <path d="M91.06 64.43 65.72 76.456l.43 22.764 24.912-12.884z"/>
    <path d="m88.48 67.008-20.62 10.31.428 18.04 20.62-9.88z" fill="#e0d400"/>
</svg>
